<svg width="24" height="24" viewBox="0 0 24 24" fill="none" xmlns="http://www.w3.org/2000/svg">
<path d="M17.669 18.5373C17.0201 18.5454 16.3755 18.431 15.769 18.2003C15.2256 17.989 14.7346 17.6621 14.33 17.2423C13.9314 16.8133 13.6236 16.3082 13.425 15.7573C13.2069 15.1479 13.0989 14.5045 13.106 13.8573C13.1014 13.2212 13.2125 12.5896 13.434 11.9933C13.6405 11.4373 13.9583 10.9292 14.368 10.5003C14.7788 10.0767 15.2696 9.73884 15.812 9.50629C16.3995 9.25778 17.0322 9.13416 17.67 9.14329C18.3555 9.12865 19.0343 9.27958 19.649 9.58329C20.1977 9.86471 20.6735 10.2697 21.039 10.7663C21.4077 11.2735 21.6737 11.848 21.822 12.4573C21.9838 13.105 22.0416 13.7744 21.993 14.4403H15.562C15.5364 15.0728 15.7532 15.6912 16.168 16.1693C16.6038 16.5516 17.1736 16.7451 17.752 16.7073C18.2063 16.7179 18.6527 16.5876 19.03 16.3343C19.3295 16.1514 19.5594 15.8737 19.683 15.5453H21.838C21.5938 16.474 21.0319 17.2878 20.25 17.8453C19.4761 18.324 18.5786 18.5646 17.669 18.5373ZM17.6 10.9933C17.264 10.9807 16.9299 11.0493 16.626 11.1933C16.3884 11.3131 16.1775 11.4798 16.006 11.6833C15.8551 11.8682 15.7435 12.0818 15.678 12.3113C15.6203 12.5025 15.583 12.6992 15.567 12.8983H19.549C19.5203 12.3797 19.3226 11.8848 18.986 11.4893C18.6135 11.1377 18.111 10.9578 17.6 10.9933ZM7.97 18.3053H2V6.00029H7.8C8.3373 5.99559 8.8736 6.04754 9.4 6.15529C9.84587 6.24234 10.2707 6.41484 10.651 6.66329C10.9945 6.90173 11.2702 7.22529 11.451 7.60229C11.6507 8.05643 11.7463 8.54944 11.731 9.04529C11.7527 9.59389 11.6073 10.1361 11.314 10.6003C10.9931 11.0434 10.5594 11.3925 10.058 11.6113C10.7393 11.7816 11.3382 12.188 11.748 12.7583C12.1287 13.3451 12.3213 14.0341 12.3 14.7333C12.3145 15.2925 12.1916 15.8467 11.942 16.3473C11.7117 16.7913 11.3776 17.1731 10.968 17.4603C10.5434 17.7557 10.0692 17.9725 9.568 18.1003C9.04477 18.2377 8.50598 18.3069 7.965 18.3063L7.97 18.3053ZM4.71 12.8223V16.2123H7.6C7.85541 16.215 8.11033 16.1892 8.36 16.1353C8.58857 16.0912 8.80611 16.0021 9 15.8733C9.18672 15.7505 9.33834 15.5813 9.44 15.3823C9.5579 15.1327 9.61349 14.8581 9.602 14.5823C9.65047 14.0704 9.45215 13.5661 9.068 13.2243C8.65353 12.939 8.15651 12.7984 7.654 12.8243L4.71 12.8223ZM4.71 8.09729V10.9723H7.452C7.87616 10.989 8.29433 10.868 8.644 10.6273C8.97362 10.3535 9.14719 9.93497 9.108 9.50829C9.11645 9.26337 9.06423 9.02016 8.956 8.80029C8.85824 8.62255 8.71413 8.47464 8.539 8.37229C8.35458 8.26293 8.15091 8.18995 7.939 8.15729C7.70824 8.11403 7.47377 8.0936 7.239 8.09629L4.71 8.09729ZM20.051 8.04129H15.061V6.82629H20.051V8.04029V8.04129Z" fill="black"/>
</svg>
