<svg width="24" height="24" viewBox="0 0 24 24" fill="none" xmlns="http://www.w3.org/2000/svg">
<path d="M12.8889 18H9.33332V7.33333H12.8889V9.11111C13.6468 8.14689 14.7961 7.57206 16.0222 7.544C18.2272 7.55624 20.0064 9.35056 20 11.5556V18H16.4444V12C16.3022 11.0068 15.4504 10.2698 14.4471 10.272C14.0082 10.2859 13.594 10.478 13.2999 10.8041C13.0059 11.1302 12.8574 11.562 12.8889 12V18ZM7.55555 18H4V7.33333H7.55555V18ZM5.77777 5.55556C4.79594 5.55556 4 4.75962 4 3.77778C4 2.79594 4.79594 2 5.77777 2C6.75961 2 7.55555 2.79594 7.55555 3.77778C7.55555 4.24927 7.36825 4.70146 7.03485 5.03486C6.70145 5.36825 6.24927 5.55556 5.77777 5.55556Z" fill="black"/>
</svg>
